<svg width="680" height="680" fill="none" xmlns="http://www.w3.org/2000/svg"><rect width="680" height="680" rx="340" fill="#9AD8FF" fill-opacity=".4"/><path d="M287.4 423.24c-24.64 0-42-7.373-52.08-22.12-9.893-14.747-14.84-39.76-14.84-75.04 0-35.28 5.6-60.853 16.8-76.72 11.387-15.867 29.493-23.8 54.32-23.8 25.013 0 42.467 7 52.36 21 10.08 14 15.12 38.64 15.12 73.92s-5.787 61.227-17.36 77.84c-11.387 16.613-29.493 24.92-54.32 24.92zm-19.88-156.52c-3.36 10.08-5.04 28.653-5.04 55.72s1.867 46.293 5.6 57.68c3.733 11.387 10.92 17.08 21.56 17.08 8.96 0 15.587-3.64 19.88-10.92 5.04-8.4 7.56-27.533 7.56-57.4 0-29.867-1.867-50.213-5.6-61.04-3.733-10.827-11.2-16.24-22.4-16.24-11.013 0-18.2 5.04-21.56 15.12zm160.488-39.76c5.04 0 10.173.28 15.4.84v.28l.28-.28v160.72c7.467 2.987 12.6 6.067 15.4 9.24l-2.8 23.24h-72.8l-2.8-23.24c3.36-4.107 10.92-7.653 22.68-10.64V264.48c-10.453-1.12-18.853-3.08-25.2-5.88v-21.28c15.68-6.907 32.293-10.36 49.84-10.36z" fill="#fff" fill-opacity=".4"/></svg>